<?xml version="1.0" encoding="UTF-8"?>
<svg version="1.1" xmlns="http://www.w3.org/2000/svg" width="512" height="512">
<path d="M0 0 C1 1 1 1 1.5 4.875 C1.28702205 16.14508307 -10.3678864 27.33391556 -18 35 C-33.51078009 49.10357019 -33.51078009 49.10357019 -42.3125 48.9375 C-45.16167224 47.94360271 -46.13355382 47.30470012 -48 45 C-48.73828125 42.6953125 -48.73828125 42.6953125 -49.3125 40.125 C-50.4494438 36.18014955 -51.51900797 33.38856355 -55.04956055 30.94824219 C-64.14721964 26.52524708 -74.11920374 26.5530913 -83.9921875 26.66381836 C-86.26077382 26.687613 -88.52819358 26.68432938 -90.796875 26.67773438 C-97.83964471 26.70445733 -104.25811679 26.83400034 -111 29 C-113.33530624 32.50295936 -113.48224847 34.45726723 -113.93359375 38.62890625 C-114.05232094 39.71384117 -114.05232094 39.71384117 -114.17344666 40.82069397 C-115.55280638 53.7697505 -116.68193373 66.7473067 -117.8604126 79.71594238 C-118.26428955 84.15578335 -118.6708932 88.59537529 -119.07742214 93.0349741 C-119.39356469 96.48750568 -119.70923046 99.94007786 -120.02320862 103.39280701 C-120.13680222 104.63852982 -120.25039581 105.88425262 -120.36743164 107.16772461 C-120.52813896 108.93876808 -120.52813896 108.93876808 -120.6920929 110.74559021 C-120.95839924 113.56030269 -121.26096353 116.36788785 -121.57324219 119.17773438 C-122.1300038 124.70137422 -122.16198929 130.20607736 -122.16796875 135.75390625 C-122.17129715 136.85363266 -122.17462555 137.95335907 -122.17805481 139.08641052 C-122.18309107 141.40338731 -122.18546416 143.72037126 -122.18530273 146.03735352 C-122.18747867 149.52828359 -122.20564125 153.01889171 -122.22460938 156.50976562 C-122.25454186 168.82254104 -121.8813866 180.82161929 -120 193 C-117.23723823 192.47731534 -114.6739124 191.89130413 -112 191 C-111.31778545 189.67455459 -110.65293694 188.34011028 -110 187 C-108.30078125 185.359375 -108.30078125 185.359375 -106.3125 183.75 C-102.76651618 180.74807507 -99.72007922 177.58226853 -96.7265625 174.03515625 C-95.56295473 172.66357334 -94.36908286 171.31717195 -93.1484375 169.99609375 C-92.54257812 169.33738281 -91.93671875 168.67867187 -91.3125 168 C-90.77238281 167.4225 -90.23226562 166.845 -89.67578125 166.25 C-85.36304113 160.45946782 -83.05971792 153.75173921 -80.875 146.9375 C-80.62363281 146.17373047 -80.37226563 145.40996094 -80.11328125 144.62304688 C-71.54480856 118.40172601 -77.44418754 95.34305729 -86 70 C-86.33 69.67 -86.66 69.34 -87 69 C-87.14115161 66.32941149 -87.04247107 63.67567762 -87 61 C-86.34 61 -85.68 61 -85 61 C-85 60.34 -85 59.68 -85 59 C-77.97558642 59.35122068 -73.52422064 63.47577936 -68.75 68.25 C-63.82459743 75.98991832 -61.68969052 85.16897238 -59.25100708 93.91989136 C-56.30421964 104.47071498 -53.21444535 114.90773692 -49.20776367 125.11499023 C-45.22416789 135.29041318 -41.8987917 147.78293523 -44.82421875 158.62890625 C-47.4256595 163.87500104 -51.62860009 168.14599514 -55.56152344 172.43066406 C-56.87376396 173.86228016 -58.16096309 175.31674727 -59.4453125 176.7734375 C-63.50504963 181.3707008 -67.71998202 185.75351813 -72.0859375 190.05859375 C-75.98801018 194.01641032 -79.63213135 198.20467239 -83 202.625 C-84.70177931 204.64586293 -86.29309825 206.14235176 -88.3125 207.8125 C-93.00553301 211.71831457 -97.06416724 216.24958414 -100.578125 221.2421875 C-101.04734375 221.82226562 -101.5165625 222.40234375 -102 223 C-102.66 223 -103.32 223 -104 223 C-104.226875 223.556875 -104.45375 224.11375 -104.6875 224.6875 C-106.81967066 228.44418163 -110.07682634 231.12463355 -113.1875 234.07421875 C-113.97125 234.83347656 -114.755 235.59273437 -115.5625 236.375 C-116.30628906 237.08398438 -117.05007813 237.79296875 -117.81640625 238.5234375 C-123.80846089 245.31943507 -124.79254364 251.17382806 -125.625 260 C-125.84512556 262.10429555 -126.06649506 264.20846132 -126.2890625 266.3125 C-126.45486816 267.94735352 -126.45486816 267.94735352 -126.62402344 269.61523438 C-127.00882612 273.07945798 -127.4946509 276.51903702 -127.9921875 279.96875 C-129.32486037 289.77440343 -129.87970028 299.62817772 -130.5 309.5 C-132.75820297 345.43839818 -132.75820297 345.43839818 -138 354 C-140.375 354.1875 -140.375 354.1875 -143 354 C-145.19107845 350.71338233 -145.44557594 348.92761759 -145.9375 345.0625 C-146.57071584 340.44465768 -147.46772484 336.10448988 -148.75 331.625 C-150.01515207 326.66819907 -150.21098587 323.77572949 -148 319 C-147.52304687 318.28972656 -147.04609375 317.57945312 -146.5546875 316.84765625 C-139.75445109 306.7130044 -140.33438477 296.54107662 -142.4296875 284.83984375 C-142.71199219 283.43412109 -142.71199219 283.43412109 -143 282 C-143.15082031 281.07574219 -143.30164063 280.15148437 -143.45703125 279.19921875 C-143.76444637 276.85392382 -143.76444637 276.85392382 -145.8125 275.875 C-146.534375 275.58625 -147.25625 275.2975 -148 275 C-148.8971875 274.195625 -148.8971875 274.195625 -149.8125 273.375 C-153.16612065 271.26700988 -155.07622068 271.43041913 -159 272 C-169.12227774 276.63133678 -178.32474565 284.37587635 -186.3125 292 C-189.14295162 294.56495616 -190.90823696 295.96395023 -194.5 297.375 C-200.22755654 296.76133323 -205.76369692 294.42435584 -209.71875 290.13671875 C-211.15711744 287.73797794 -211.68062074 285.73302045 -212.25 283 C-213.66906514 277.41982199 -216.09162072 273.08347976 -219.078125 268.1953125 C-221.17643728 264.70665509 -223.12627261 261.17536979 -225 257.5625 C-225.598125 256.42941406 -226.19625 255.29632813 -226.8125 254.12890625 C-228.08207637 250.78373957 -228.1618011 249.33412712 -227 246 C-226 245 -226 245 -222.875 244.75 C-219 245 -219 245 -215.5625 246.5 C-205.99236147 250.52953201 -194.50494838 246.55323576 -185.26318359 242.92578125 C-182.34263111 241.70024981 -179.44903237 240.42857959 -176.5625 239.125 C-175.65161621 238.71459473 -174.74073242 238.30418945 -173.80224609 237.88134766 C-171.16451437 236.64944263 -168.58003554 235.34821592 -166 234 C-165.13358887 233.56913086 -164.26717773 233.13826172 -163.37451172 232.69433594 C-158.88940019 230.20598864 -158.88940019 230.20598864 -156.22973633 226.00366211 C-155.90431956 223.30181252 -155.93244857 220.72154301 -156 218 C-155.95053651 216.12518235 -155.90078902 214.25036905 -155.8469696 212.37567139 C-155.75465245 208.47996055 -155.753579 204.58414676 -155.75 200.6875 C-155.74866058 199.81196472 -155.74732117 198.93642944 -155.74594116 198.03436279 C-155.75566557 167.67073084 -157.46996671 137.31752321 -159 107 C-159.03396881 106.3244809 -159.06793762 105.64896179 -159.10293579 104.95297241 C-159.56570733 95.75895678 -160.05410521 86.56659706 -160.5625 77.375 C-160.64934555 75.75757904 -160.64934555 75.75757904 -160.73794556 74.10748291 C-160.90240366 71.07898363 -161.0764894 68.051202 -161.25390625 65.0234375 C-161.29968811 64.16196106 -161.34546997 63.30048462 -161.39263916 62.41290283 C-161.89989097 51.89744717 -161.89989097 51.89744717 -165 42 C-177.81751979 41.6613257 -190.06932652 42.62081671 -202.75 44.4375 C-204.44776763 44.67100805 -206.14568451 44.90343355 -207.84375 45.13476562 C-216.04699527 46.25164125 -216.04699527 46.25164125 -224.22192383 47.55517578 C-228.4609209 48.23392195 -232.65148503 48.3456342 -236.9375 48.4375 C-237.80568359 48.48326172 -238.67386719 48.52902344 -239.56835938 48.57617188 C-244.37158893 48.65967473 -247.23963805 48.30233775 -250.96484375 45.12890625 C-251.99670182 44.10585807 -253.01028098 43.0638679 -254 42 C-254.86625 41.175 -255.7325 40.35 -256.625 39.5 C-257.40875 38.675 -258.1925 37.85 -259 37 C-260.36125 35.6078125 -260.36125 35.6078125 -261.75 34.1875 C-264.60481456 30.14317937 -264.91825293 27.9048241 -265 23 C-261.35542474 19.35542474 -255.67116382 20.5136745 -250.74780273 20.48266602 C-244.39964022 20.60515143 -240.06575509 21.56296374 -234.97265625 25.58984375 C-232.47832818 27.37291787 -231.07808272 27.79879014 -228 28 C-225.83180679 27.61125899 -223.71294685 27.09699418 -221.57421875 26.56982422 C-216.77451671 25.50737121 -211.88158295 25.09611281 -207 24.5625 C-199.37261874 23.68070882 -191.76132846 22.76934257 -184.1875 21.5 C-183.50751953 21.39373291 -182.82753906 21.28746582 -182.12695312 21.17797852 C-178.39283877 20.51989374 -175.72969359 19.69531458 -173 17 C-173 16.34 -173 15.68 -173 15 C-175.4752666 13.7623667 -177.07797709 13.89253781 -179.84521484 13.91821289 C-181.35720963 13.92800926 -181.35720963 13.92800926 -182.89974976 13.93800354 C-183.99244171 13.94943893 -185.08513367 13.96087433 -186.2109375 13.97265625 C-188.51041516 13.98530347 -190.8098944 13.99766436 -193.109375 14.00976562 C-196.74581811 14.03459531 -200.38217963 14.06256591 -204.01855469 14.09594727 C-207.52018767 14.12611737 -211.02171612 14.14391648 -214.5234375 14.16015625 C-215.61208099 14.17361588 -216.70072449 14.1870755 -217.82235718 14.20094299 C-218.83665802 14.20432175 -219.85095886 14.2077005 -220.89599609 14.21118164 C-221.78709076 14.21863907 -222.67818542 14.2260965 -223.59628296 14.23377991 C-226.16537515 13.983916 -227.78930835 13.2977474 -230 12 C-230.53303541 8.87793547 -230.55596905 6.80590009 -228.72265625 4.1484375 C-220.96323706 -4.12123828 -211.67336276 -4.66178495 -200.875 -5.625 C-199.53805476 -5.75146116 -198.20114095 -5.87825509 -196.86425781 -6.00537109 C-187.1660515 -6.90502814 -177.46871988 -7.47216651 -167.734375 -7.7890625 C-164.64097373 -7.89850777 -161.60546439 -8.13600447 -158.53125 -8.4921875 C-151.46671835 -9.24312003 -144.36398327 -9.29311043 -137.26681519 -9.4458313 C-132.98627828 -9.53796008 -128.70601622 -9.64095568 -124.42578125 -9.74609375 C-123.59007095 -9.76655258 -122.75436066 -9.78701141 -121.89332581 -9.80809021 C-115.90129961 -9.96126218 -109.92205275 -10.22667531 -103.9375 -10.5625 C-27.84470113 -14.48786191 -27.84470113 -14.48786191 0 0 Z " fill="#000000" transform="translate(406,141)"/>
<path d="M0 0 C2.23046875 0.07421875 2.23046875 0.07421875 5 1 C6.71511565 3.28168887 7.99861081 5.31213087 9.3125 7.8125 C9.69857422 8.52752686 10.08464844 9.24255371 10.48242188 9.97924805 C15.06131565 18.69207354 18.64770971 27.75739281 22 37 C22.54140625 38.49055908 22.54140625 38.49055908 23.09375 40.01123047 C27.9527787 53.57812788 32.03674295 67.28534657 35.5625 81.25 C35.73861816 81.93944702 35.91473633 82.62889404 36.09619141 83.3392334 C36.59663445 85.31229744 37.08403884 87.28807265 37.56640625 89.265625 C37.84427979 90.39774414 38.12215332 91.52986328 38.40844727 92.69628906 C39.03929371 96.21944799 39.19179968 99.42810618 39 103 C37.16884793 105.61593153 36.09031634 105.96989455 33 107 C26.98730837 107.24862055 21.36175721 106.60843615 15.4375 105.625 C14.22030273 105.43550781 14.22030273 105.43550781 12.97851562 105.2421875 C-0.95800648 102.99254713 -0.95800648 102.99254713 -4 99 C-4.43237305 96.61499023 -4.43237305 96.61499023 -4.51171875 93.80859375 C-4.54716797 92.78056641 -4.58261719 91.75253906 -4.61914062 90.69335938 C-4.64169922 89.61892578 -4.66425781 88.54449219 -4.6875 87.4375 C-4.73874023 85.86645508 -4.73874023 85.86645508 -4.79101562 84.26367188 C-4.93854683 79.4192288 -4.998674 74.59564826 -4.91015625 69.75 C-4.89770067 65.15112269 -5.61281302 61.00548746 -6.75 56.5625 C-6.92756836 55.83240723 -7.10513672 55.10231445 -7.28808594 54.35009766 C-8.3603464 50.07895823 -9.66159627 45.98783108 -11.25 41.875 C-12.81801133 37.74172214 -13.90982937 34.45816393 -13 30 C-9.87944243 27.29551677 -8.16725696 26 -4 26 C-2.30539538 20.88308838 -1.82359467 16.76452735 -2 11.3125 C-2.25206463 3.47486535 -2.25206463 3.47486535 0 0 Z " fill="#000000" transform="translate(218,18)"/>
<path d="M0 0 C1.97265625 0.8984375 1.97265625 0.8984375 3.0625 3.2265625 C3.34222656 4.19078125 3.62195313 5.155 3.91015625 6.1484375 C5.52716616 11.09571783 7.02336726 13.58957375 10.97265625 16.8984375 C12.35360008 19.66032515 12.16407018 22.06247263 12.28515625 25.1484375 C13.65911865 44.99007095 23.81441632 65.13873693 36.7421875 80.171875 C38.97265625 82.8984375 38.97265625 82.8984375 38.97265625 84.8984375 C39.92140625 85.1871875 40.87015625 85.4759375 41.84765625 85.7734375 C44.97265625 86.8984375 44.97265625 86.8984375 46.97265625 88.8984375 C47.4296875 90.74609375 47.4296875 90.74609375 47.78515625 92.9609375 C48.68374319 97.53489232 50.50074446 100.88482519 53.046875 104.7578125 C54.2338755 107.50243814 53.78660249 109.07675719 52.97265625 111.8984375 C46.1335374 114.45170854 40.31078959 116.4629093 32.97265625 115.8984375 C32.75351563 115.35316406 32.534375 114.80789063 32.30859375 114.24609375 C31.99148437 113.49199219 31.674375 112.73789062 31.34765625 111.9609375 C31.04601562 111.23003906 30.744375 110.49914062 30.43359375 109.74609375 C26.35192415 101.79011209 20.68603736 94.80972891 15.22265625 87.7734375 C10.09893904 81.11377226 5.13853355 74.4224536 0.57055664 67.36962891 C-2.08244645 63.27783229 -4.87115991 59.31281727 -7.73632812 55.36669922 C-21.80080763 35.91026487 -21.80080763 35.91026487 -20.02734375 22.8984375 C-17.82278582 12.89919259 -12.65831592 6.92056048 -4.40234375 1.0234375 C-2.02734375 -0.1015625 -2.02734375 -0.1015625 0 0 Z " fill="#000000" transform="translate(179.02734375,257.1015625)"/>
<path d="M0 0 C0.804375 0.12375 1.60875 0.2475 2.4375 0.375 C3.0975 1.365 3.7575 2.355 4.4375 3.375 C7.02870557 3.88402409 7.02870557 3.88402409 9.9375 3.9375 C15.22979711 4.16729711 15.22979711 4.16729711 17.4375 6.375 C17.12863208 10.54471689 16.40412189 13.7157937 14.4375 17.375 C14.88480469 17.75011719 15.33210938 18.12523437 15.79296875 18.51171875 C17.68895297 20.11663503 19.56353496 21.74445722 21.4375 23.375 C22.4275 24.220625 23.4175 25.06625 24.4375 25.9375 C26.4375 28.375 26.4375 28.375 26.25 31.1875 C25.981875 31.909375 25.71375 32.63125 25.4375 33.375 C24.591875 33.49875 23.74625 33.6225 22.875 33.75 C21.740625 33.95625 20.60625 34.1625 19.4375 34.375 C18.2825 34.58125 17.1275 34.7875 15.9375 35 C10.32681731 37.20419677 7.69931173 41.4822824 4.4375 46.375 C-0.85048182 45.96025633 -3.67940718 45.02275386 -7.5625 41.375 C-6.48848892 38.45982708 -5.78439824 36.59689824 -3.5625 34.375 C-3.5625 33.385 -3.5625 32.395 -3.5625 31.375 C-4.16578125 31.19324219 -4.7690625 31.01148438 -5.390625 30.82421875 C-14.19034701 28.05656425 -14.19034701 28.05656425 -16.5625 25.375 C-16.8125 22.6875 -16.8125 22.6875 -16.5625 20.375 C-15.5725 20.045 -14.5825 19.715 -13.5625 19.375 C-13.5625 18.715 -13.5625 18.055 -13.5625 17.375 C-12.139375 16.3540625 -12.139375 16.3540625 -10.6875 15.3125 C-7.13232826 12.52331374 -6.64038398 9.82353348 -6.08203125 5.4609375 C-5.19653352 1.90563083 -3.57805418 0.52361769 0 0 Z " fill="#000000" transform="translate(383.5625,391.625)"/>
<path d="M0 0 C2.72915417 1.49663293 4.16493908 2.43648383 5.9375 5.0625 C6.51378906 10.29343145 4.77802435 14.52149246 2.5 19.125 C-0.80513349 26.41908769 -0.99210149 33.95651062 -1.42944336 41.87329102 C-1.48753174 42.88576904 -1.54562012 43.89824707 -1.60546875 44.94140625 C-1.64696045 45.8547876 -1.68845215 46.76816895 -1.73120117 47.70922852 C-2.0625 50.0625 -2.0625 50.0625 -4.0625 53.0625 C-8.39383335 52.58124074 -10.33848539 51.46481943 -13.0625 48.0625 C-13.48486328 45.39282227 -13.48486328 45.39282227 -13.3828125 42.37890625 C-13.36089844 41.28642578 -13.33898437 40.19394531 -13.31640625 39.06835938 C-13.27386719 37.93205078 -13.23132813 36.79574219 -13.1875 35.625 C-13.11839617 33.37656621 -13.05817161 31.12783795 -13.0078125 28.87890625 C-12.97187988 27.88318604 -12.93594727 26.88746582 -12.89892578 25.86157227 C-13.07440599 22.85876542 -13.88567912 20.8067817 -15.0625 18.0625 C-15.0625 17.0725 -15.0625 16.0825 -15.0625 15.0625 C-16.3825 15.3925 -17.7025 15.7225 -19.0625 16.0625 C-20.74288013 21.88781779 -21.40859368 27.36997902 -21.71875 33.42578125 C-22.0625 36.0625 -22.0625 36.0625 -24.0625 39.0625 C-25.0525 39.0625 -26.0425 39.0625 -27.0625 39.0625 C-27.57718115 37.56747381 -28.07338241 36.06608371 -28.5625 34.5625 C-28.8409375 33.7271875 -29.119375 32.891875 -29.40625 32.03125 C-30.98240731 24.90101455 -29.82897094 19.06541172 -27.6875 12.25 C-27.46578125 11.50041016 -27.2440625 10.75082031 -27.015625 9.97851562 C-26.0010923 6.63950949 -25.00987886 3.98356829 -23.0625 1.0625 C-18.22483301 1.47715717 -16.20603624 3.4823615 -13.0625 7.0625 C-12.7325 7.7225 -12.4025 8.3825 -12.0625 9.0625 C-11.0725 9.3925 -10.0825 9.7225 -9.0625 10.0625 C-8.835625 9.340625 -8.60875 8.61875 -8.375 7.875 C-6.67220422 4.22615189 -4.40175215 0.13338643 0 0 Z " fill="#000000" transform="translate(124.0625,384.9375)"/>
<path d="M0 0 C2.25 0 2.25 0 5 1 C6.67198768 3.52667787 7.85805571 6.19936568 9 9 C9.70125 8.505 10.4025 8.01 11.125 7.5 C14.51250333 5.73260696 16.2335258 5.3722543 20 6 C22.9375 8.1875 22.9375 8.1875 25 11 C24.73796149 15.09435179 23.44674479 16.94370778 20.5625 19.75 C16.74566751 23.8484021 15.62294436 27.50791907 15 33 C14.26394531 33.04898438 13.52789062 33.09796875 12.76953125 33.1484375 C11.79371094 33.22320312 10.81789063 33.29796875 9.8125 33.375 C8.36810547 33.47941406 8.36810547 33.47941406 6.89453125 33.5859375 C3.97779768 34.00317604 1.70857949 34.88015033 -1 36 C-1.99 36 -2.98 36 -4 36 C-5.21977329 33.56045342 -5.20153813 31.84694151 -5.25 29.125 C-5.28867188 27.82949219 -5.28867188 27.82949219 -5.328125 26.5078125 C-4.94108924 23.54975351 -3.95124005 22.20798216 -2 20 C-4.45631001 20.49547543 -4.45631001 20.49547543 -7 22 C-8.66881935 25.42168849 -8.66881935 25.42168849 -10 29 C-11.6875 30.9375 -11.6875 30.9375 -13 32 C-16 31 -16 31 -17.14453125 29.2265625 C-18.75024698 25.04730237 -19.02900323 21.37170465 -18 17 C-14.01479126 10.87090457 -9.53635581 7.1410821 -3 4 C-1.14684743 1.95053601 -1.14684743 1.95053601 0 0 Z " fill="#000000" transform="translate(105,53)"/>
<path d="M0 0 C2.875 2.1875 2.875 2.1875 5 5 C5.4156942 10.12689509 1.06136763 14.22712185 -2 18 C0.27397771 20.27397771 5.72281137 19.39246006 8.80078125 19.5234375 C12.27451375 20.04089216 13.76480326 20.28388073 16 23 C16.29642569 25.71229503 16.38061189 27.99739732 16.25 30.6875 C16.23195313 31.38939453 16.21390625 32.09128906 16.1953125 32.81445312 C16.14826213 34.54355436 16.07651873 36.27195205 16 38 C8.44700477 37.60613215 2.87038658 35.51732007 -3.875 32.1875 C-4.81085938 31.74857422 -5.74671875 31.30964844 -6.7109375 30.85742188 C-14.52074341 27.08156025 -14.52074341 27.08156025 -17 23 C-17.80338314 17.03201097 -16.29719498 12.85854079 -13 8 C-5.7586206 -0.84385584 -5.7586206 -0.84385584 0 0 Z " fill="#000000" transform="translate(396,39)"/>
</svg>
